HIERARCHY
ROOT Hips
{
    OFFSET   0.000000   0.000000   0.000000
    CHANNELS 6 Xposition Yposition Zposition Zrotation Xrotation Yrotation
    JOINT Chest
    {
        OFFSET   0.000000   8.007230   0.000000
        CHANNELS 3 Zrotation Xrotation Yrotation
        JOINT Chest2
        {
            OFFSET   0.000000  22.077100   0.000000
            CHANNELS 3 Zrotation Xrotation Yrotation
            JOINT Neck
            {
                OFFSET   0.000000  23.255100   0.000000
                CHANNELS 3 Zrotation Xrotation Yrotation
                JOINT Head
                {
                    OFFSET   0.000000  14.370100   1.956600
                    CHANNELS 3 Zrotation Xrotation Yrotation
                    End Site
                    {
                        OFFSET   0.000000  19.566000   0.000000
                    }
                }
            }
            JOINT LeftCollar
            {
                OFFSET   3.911900  19.017000  -0.467063
                CHANNELS 3 Zrotation Xrotation Yrotation
                JOINT LeftShoulder
                {
                    OFFSET  10.383700   0.000000   0.000000
                    CHANNELS 3 Zrotation Xrotation Yrotation
                    JOINT LeftElbow
                    {
                        OFFSET  26.662100   0.001193   0.000980
                        CHANNELS 3 Zrotation Xrotation Yrotation
                        JOINT LeftWrist
                        {
                            OFFSET  28.869000  -0.000059  -0.000082
                            CHANNELS 3 Zrotation Xrotation Yrotation
                            JOINT LeftFinger0
                            {
                                OFFSET   2.044650  -2.323450   3.252850
                                CHANNELS 3 Zrotation Xrotation Yrotation
                                JOINT LeftFinger01
                                {
                                    OFFSET   3.088130   0.000000   0.000000
                                    CHANNELS 3 Zrotation Xrotation Yrotation
                                    JOINT LeftFinger02
                                    {
                                        OFFSET   2.639460   0.000000   0.000000
                                        CHANNELS 3 Zrotation Xrotation Yrotation
                                        End Site
                                        {
                                            OFFSET   2.582190   0.000000   0.000000
                                        }
                                    }
                                }
                            }
                            JOINT LeftFinger1
                            {
                                OFFSET   8.364480   0.000000   3.252850
                                CHANNELS 3 Zrotation Xrotation Yrotation
                                JOINT LeftFinger11
                                {
                                    OFFSET   4.646930   0.000000   0.000000
                                    CHANNELS 3 Zrotation Xrotation Yrotation
                                    JOINT LeftFinger12
                                    {
                                        OFFSET   2.323470   0.000000   0.000000
                                        CHANNELS 3 Zrotation Xrotation Yrotation
                                        End Site
                                        {
                                            OFFSET   2.273050   0.000000   0.000000
                                        }
                                    }
                                }
                            }
                            JOINT LeftFinger2
                            {
                                OFFSET   8.364490   0.000016   1.078090
                                CHANNELS 3 Zrotation Xrotation Yrotation
                                JOINT LeftFinger21
                                {
                                    OFFSET   5.111610   0.000000   0.000000
                                    CHANNELS 3 Zrotation Xrotation Yrotation
                                    JOINT LeftFinger22
                                    {
                                        OFFSET   2.788150   0.000016   0.000000
                                        CHANNELS 3 Zrotation Xrotation Yrotation
                                        End Site
                                        {
                                            OFFSET   2.727660   0.000000   0.000000
                                        }
                                    }
                                }
                            }
                            JOINT LeftFinger3
                            {
                                OFFSET   7.899780   0.000015  -1.078090
                                CHANNELS 3 Zrotation Xrotation Yrotation
                                JOINT LeftFinger31
                                {
                                    OFFSET   4.646930   0.000000   0.000000
                                    CHANNELS 3 Zrotation Xrotation Yrotation
                                    JOINT LeftFinger32
                                    {
                                        OFFSET   2.323470   0.000000   0.000000
                                        CHANNELS 3 Zrotation Xrotation Yrotation
                                        End Site
                                        {
                                            OFFSET   2.273050   0.000000   0.000000
                                        }
                                    }
                                }
                            }
                            JOINT LeftFinger4
                            {
                                OFFSET   7.435090   0.000000  -3.252850
                                CHANNELS 3 Zrotation Xrotation Yrotation
                                JOINT LeftFinger41
                                {
                                    OFFSET   3.717550   0.000000   0.000000
                                    CHANNELS 3 Zrotation Xrotation Yrotation
                                    JOINT LeftFinger42
                                    {
                                        OFFSET   1.858770   0.000000   0.000000
                                        CHANNELS 3 Zrotation Xrotation Yrotation
                                        End Site
                                        {
                                            OFFSET   1.818440   0.000000   0.000000
                                        }
                                    }
                                }
                            }
                        }
                    }
                }
            }
            JOINT RightCollar
            {
                OFFSET  -3.911910  19.017000  -0.467062
                CHANNELS 3 Zrotation Xrotation Yrotation
                JOINT RightShoulder
                {
                    OFFSET -10.383700   0.000014   0.000000
                    CHANNELS 3 Zrotation Xrotation Yrotation
                    JOINT RightElbow
                    {
                        OFFSET -26.662100   0.001225   0.001091
                        CHANNELS 3 Zrotation Xrotation Yrotation
                        JOINT RightWrist
                        {
                            OFFSET -28.869000  -0.000020  -0.000085
                            CHANNELS 3 Zrotation Xrotation Yrotation
                            JOINT RightFinger0
                            {
                                OFFSET  -2.044650  -2.323490   3.252850
                                CHANNELS 3 Zrotation Xrotation Yrotation
                                JOINT RightFinger01
                                {
                                    OFFSET  -3.088130   0.000000   0.000000
                                    CHANNELS 3 Zrotation Xrotation Yrotation
                                    JOINT RightFinger02
                                    {
                                        OFFSET  -2.639460   0.000000   0.000000
                                        CHANNELS 3 Zrotation Xrotation Yrotation
                                        End Site
                                        {
                                            OFFSET  -2.582190   0.000000   0.000000
                                        }
                                    }
                                }
                            }
                            JOINT RightFinger1
                            {
                                OFFSET  -8.364480   0.000000   3.252850
                                CHANNELS 3 Zrotation Xrotation Yrotation
                                JOINT RightFinger11
                                {
                                    OFFSET  -4.646930   0.000000   0.000000
                                    CHANNELS 3 Zrotation Xrotation Yrotation
                                    JOINT RightFinger12
                                    {
                                        OFFSET  -2.323470   0.000000   0.000000
                                        CHANNELS 3 Zrotation Xrotation Yrotation
                                        End Site
                                        {
                                            OFFSET  -2.273050   0.000000   0.000000
                                        }
                                    }
                                }
                            }
                            JOINT RightFinger2
                            {
                                OFFSET  -8.364480   0.000000   1.078090
                                CHANNELS 3 Zrotation Xrotation Yrotation
                                JOINT RightFinger21
                                {
                                    OFFSET  -5.111620   0.000000   0.000000
                                    CHANNELS 3 Zrotation Xrotation Yrotation
                                    JOINT RightFinger22
                                    {
                                        OFFSET  -2.788160   0.000000   0.000000
                                        CHANNELS 3 Zrotation Xrotation Yrotation
                                        End Site
                                        {
                                            OFFSET  -2.727660   0.000000   0.000000
                                        }
                                    }
                                }
                            }
                            JOINT RightFinger3
                            {
                                OFFSET  -7.899780   0.000000  -1.078090
                                CHANNELS 3 Zrotation Xrotation Yrotation
                                JOINT RightFinger31
                                {
                                    OFFSET  -4.646930   0.000000   0.000000
                                    CHANNELS 3 Zrotation Xrotation Yrotation
                                    JOINT RightFinger32
                                    {
                                        OFFSET  -2.323470   0.000000   0.000000
                                        CHANNELS 3 Zrotation Xrotation Yrotation
                                        End Site
                                        {
                                            OFFSET  -2.273050   0.000000   0.000000
                                        }
                                    }
                                }
                            }
                            JOINT RightFinger4
                            {
                                OFFSET  -7.435090   0.000000  -3.252850
                                CHANNELS 3 Zrotation Xrotation Yrotation
                                JOINT RightFinger41
                                {
                                    OFFSET  -3.717550   0.000000   0.000000
                                    CHANNELS 3 Zrotation Xrotation Yrotation
                                    JOINT RightFinger42
                                    {
                                        OFFSET  -1.858760   0.000000   0.000000
                                        CHANNELS 3 Zrotation Xrotation Yrotation
                                        End Site
                                        {
                                            OFFSET  -1.818440   0.000000   0.000000
                                        }
                                    }
                                }
                            }
                        }
                    }
                }
            }
        }
    }
    JOINT LeftHip
    {
        OFFSET   9.783030   0.000000   0.000000
        CHANNELS 3 Zrotation Xrotation Yrotation
        JOINT LeftKnee
        {
            OFFSET   0.000063 -41.789100   0.000608
            CHANNELS 3 Zrotation Xrotation Yrotation
            JOINT LeftAnkle
            {
                OFFSET   0.000048 -41.133200  -0.000184
                CHANNELS 3 Zrotation Xrotation Yrotation
                JOINT LeftToe
                {
                    OFFSET   0.000000  -6.358960  14.674500
                    CHANNELS 3 Zrotation Xrotation Yrotation
                    End Site
                    {
                        OFFSET   0.000000   0.000000   3.913200
                    }
                }
            }
        }
    }
    JOINT RightHip
    {
        OFFSET  -9.783030   0.000000   0.000000
        CHANNELS 3 Zrotation Xrotation Yrotation
        JOINT RightKnee
        {
            OFFSET   0.000071 -41.789100   0.001239
            CHANNELS 3 Zrotation Xrotation Yrotation
            JOINT RightAnkle
            {
                OFFSET   0.000037 -41.133200  -0.000166
                CHANNELS 3 Zrotation Xrotation Yrotation
                JOINT RightToe
                {
                    OFFSET   0.000000  -6.358960  14.674500
                    CHANNELS 3 Zrotation Xrotation Yrotation
                    End Site
                    {
                        OFFSET   0.000000   0.000000   3.913200
                    }
                }
            }
        }
    }
}
MOTION
Frames: 5
Frame Time:   0.016667
  0.356241  89.516600   1.861110  -2.492920 -12.047100   1.428090   0.858785   5.965680   1.266350   1.597100  11.948400   2.462340   5.368730   2.062020  -0.198629   8.850690   4.071140  -4.785230  -2.483890  -1.193300  -0.888392 -76.321600  20.049000  -0.435430  -0.708147  -4.357900 -19.558000  14.968700 -14.568300   5.706570  40.719500  35.596300 -70.606900 -29.596000   0.006706   0.003860  -9.798020   0.003362  -0.054284 -30.723600   4.232720  -7.079300 -25.351800   0.005219   0.000290 -17.746300   0.004667  -0.098834 -28.761200  -1.326730   2.418340 -42.135700   0.002412   0.001840 -28.062400   0.004667   0.003276 -28.762400  -1.326800   2.418310 -42.261200   0.003954   0.003321 -28.146000   0.003442   0.004775 -33.446700  -1.518620   2.303080 -50.215500  -0.003876   0.001460 -33.443600   0.003090   0.006676   7.767370  -0.709059   4.523040  69.078300   8.914480  23.535800 -30.851900 -23.447400  52.083900 -77.656000 -29.965300 -34.551000 -40.927400  35.847300  75.483900  26.900000   0.029139  -0.022032   8.450030   0.012793  -0.013082  26.987300   7.490640  14.106400  22.944800   0.001988  -0.015337  16.061400  -0.009498  -0.010656  28.099800   1.571600   2.713480  34.995700   0.008897   0.090641  23.307100   0.028740   0.053430  27.620000  -0.095139  -0.324260  30.907300   0.007667   0.105446  20.584200   0.029939   0.063718  30.836200   0.081827   0.203507  46.285600   0.054855   0.102632  30.826200   0.066794   0.039129   3.745280  14.701800   2.612450   0.696850   0.040295   5.531430  -2.333010  -3.587370   0.436383   0.000000   0.000000   0.000000   3.411640  14.529600  -7.282960  -0.019018   1.188980  -8.385590   0.209018  -4.878400   1.871850   0.000000   0.000000   0.000000
  0.356640  89.505800   1.831030  -2.519580 -12.003700   1.297070   0.854563   5.951660   1.205950   1.595270  11.919600   2.341120   5.368910   2.072540  -0.198856   8.846660   4.092410  -4.605190  -2.470450  -1.149480  -0.820939 -76.259300  20.101100  -0.463764  -0.722019  -4.426920 -19.487600  14.948100 -14.546300   5.725560  40.732600  35.592200 -70.590700 -29.606200   0.008294   0.004795  -9.800650   0.003539  -0.064895 -30.724600   4.223240  -7.062650 -25.352900   0.005224   0.000357 -17.745800   0.004666  -0.153799 -28.761300  -1.326660   2.417360 -42.116300   0.002430   0.001892 -28.049400   0.004616   0.003276 -28.762600  -1.326730   2.417330 -42.218800   0.003954   0.003401 -28.117800   0.003443   0.004775 -33.425300  -1.518300   2.302250 -50.183700  -0.004046   0.001574 -33.422400   0.003090   0.006675   7.736270  -0.572657   4.644480  68.712100   9.073910  23.714100 -32.086400 -22.073200  51.752000 -71.719700 -24.999500 -24.803500 -39.905900  34.393400  74.041200  27.041200   0.080388  -0.059457   8.520630   0.035526  -0.035280  27.186900   8.719560  15.963200  23.329800   0.009717  -0.064624  16.330900  -0.008945  -0.045293  28.302300   2.958260   5.180400  37.107200  -0.011084  -0.035761  24.713400  -0.017740  -0.018130  27.781200   1.025110   1.686480  32.617800  -0.000694   0.007326  21.723400   0.002935   0.004112  31.913600   0.680641   1.130650  47.891200   0.029001   0.055588  31.895500   0.035864   0.019750   3.735790  14.681700   2.618790   0.699056   0.012724   5.603860  -2.327240  -3.573910   0.491213   0.000000   0.000000   0.000000   3.385380  14.469300  -7.253050  -0.004989   1.173200  -8.363850   0.214200  -4.834020   1.961350  -0.000000   0.000000   0.000000
  0.356759  89.497300   1.797980  -2.551560 -11.955200   1.145030   0.850842   5.931270   1.149720   1.594070  11.878000   2.228320   5.369970   2.098520  -0.199809   8.853920   4.143570  -4.439490  -2.457380  -1.096480  -0.736835 -76.200700  20.161000  -0.496860  -0.733781  -4.504940 -19.406100  14.925300 -14.514100   5.745770  40.728700  35.605900 -70.577800 -29.611700   0.010802   0.006262  -9.801480   0.003714  -0.067343 -30.724300   4.218470  -7.054750 -25.353400   0.005229   0.000421 -17.745300   0.004665  -0.183557 -28.761600  -1.326170   2.414140 -42.084100   0.002448   0.001941 -28.028000   0.004565   0.003275 -28.762900  -1.326220   2.414110 -42.174900   0.003954   0.003482 -28.088500   0.003444   0.004775 -33.401300  -1.517060   2.299110 -50.147800  -0.004222   0.001693 -33.398400   0.003089   0.006674   7.693650  -0.411035   4.788850  68.148900   9.253010  23.957700 -33.206800 -20.542900  51.373800 -66.597300 -19.224300 -16.153300 -39.458800  32.979000  72.776600  27.182600   0.139924  -0.104640   8.591270   0.062088  -0.061451  27.092200   9.425590  17.448500  23.448000   0.014267  -0.093868  16.413500  -0.008391  -0.065834  28.273300   4.215640   7.520510  38.276200  -0.029730  -0.121855  25.491900  -0.050833  -0.066245  27.916000   2.185580   3.780780  33.675200  -0.012713  -0.108220  22.427700  -0.034099  -0.064067  32.623000   0.899166   1.419200  48.949200  -0.008384  -0.009172  32.600100  -0.007993  -0.002003   3.728980  14.646200   2.630520   0.700211   0.000299   5.682690  -2.321560  -3.569120   0.554480   0.000000   0.000000   0.000000   3.365000  14.401600  -7.225120   0.005926   1.156130  -8.325860   0.217676  -4.785040   2.056980  -0.000000   0.000000   0.000000
  0.356888  89.492400   1.763330  -2.597180 -11.903800   0.963758   0.848628   5.901360   1.094280   1.595940  11.817400   2.117060   5.375170   2.137860  -0.202251   8.865210   4.220930  -4.274990  -2.440830  -1.026000  -0.611468 -76.153800  20.243100  -0.533900  -0.737210  -4.592480 -19.316200  14.913100 -14.495200   5.773040  40.788400  35.696600 -70.638600 -29.611400   0.013255   0.007629  -9.801040   0.003897  -0.046576 -30.726100   4.220600  -7.058110 -25.354400   0.005229   0.000484 -17.746600   0.004664  -0.131589 -28.762200  -1.321360   2.404230 -42.052700   0.002469   0.001984 -28.007000   0.004513   0.003276 -28.763600  -1.321410   2.404200 -42.143500   0.003954   0.003564 -28.067600   0.003442   0.004775 -33.383300  -1.510710   2.289990 -50.120600  -0.004405   0.001808 -33.380300   0.003087   0.006675   7.633490  -0.213686   4.976050  67.403200   9.430090  24.262100 -34.373500 -18.894200  50.966900 -61.275500 -12.451400  -8.782210 -39.131900  31.517900  72.376000  26.542300   0.182999  -0.123598   8.271100   0.083591  -0.071955  25.764000   8.903750  17.859400  22.227500  -0.000672  -0.067768  15.559100  -0.013169  -0.045886  27.838500   5.078830   9.677830  36.378900  -0.020687  -0.062631  24.228300  -0.030749  -0.031716  28.115100   3.378600   5.988800  33.218700  -0.018988  -0.150525  22.123600  -0.050394  -0.088434  32.607700   0.845829   1.305920  48.924300  -0.019340  -0.021771  32.583600  -0.018035  -0.004238   3.730540  14.568300   2.659010   0.702523   0.066046   5.755950  -2.316350  -3.610890   0.633409   0.000000   0.000000  -0.000000   3.358930  14.334200  -7.204910   0.008748   1.129660  -8.253480   0.217265  -4.728540   2.152370  -0.000000   0.000000   0.000000
  0.357106  89.490700   1.729690  -2.651800 -11.852200   0.773380   0.847172   5.867410   1.042590   1.598930  11.748800   2.013320   5.387570   2.185720  -0.206066   8.886020   4.314830  -4.132250  -2.422720  -0.949467  -0.481893 -76.115100  20.315400  -0.566197  -0.736070  -4.670590 -19.232000  14.911000 -14.486200   5.800210  40.853400  35.775400 -70.708700 -29.609700   0.015731   0.008997  -9.800340   0.004076  -0.025810 -30.731600   4.226330  -7.066520 -25.357600   0.005228   0.000543 -17.750300   0.004664  -0.056469 -28.763100  -1.311770   2.387980 -42.033900   0.002491   0.002023 -27.994500   0.004461   0.003277 -28.764500  -1.311830   2.387950 -42.128700   0.003954   0.003647 -28.057700   0.003441   0.004775 -33.374800  -1.499500   2.274830 -50.107000  -0.004593   0.001954 -33.371200   0.003086   0.006676   7.560050  -0.007721   5.156910  66.487800   9.669750  24.598200 -35.615000 -17.161800  50.544200 -56.425000  -5.772450  -2.861560 -39.025100  30.714300  72.350200  24.967200   0.204193  -0.129164   7.483570   0.094838  -0.074750  24.097300   8.350520  17.894800  20.726800  -0.015611  -0.041667  14.508700  -0.017946  -0.025937  27.497300   5.658790  10.824900  33.260600  -0.009128  -0.003407  22.151500  -0.010664   0.002813  28.129700   4.380190   7.920730  31.910100  -0.021603  -0.175929  21.252100  -0.055953  -0.104263  32.482000   0.792485   1.192640  48.750300  -0.037392  -0.039098  32.467700  -0.036620  -0.006473   3.739280  14.507500   2.683410   0.704669   0.131777   5.827980  -2.310370  -3.652640   0.722655  -0.000000   0.000000   0.000000   3.359750  14.267100  -7.185280   0.010121   1.101930  -8.175540   0.217857  -4.669520   2.251860  -0.000000   0.000000   0.000000
